<?xml version="1.0" encoding="UTF-8"?>
<svg xmlns="http://www.w3.org/2000/svg" xmlns:xlink="http://www.w3.org/1999/xlink" width="1920" height="1080" viewBox="0 0 1920 1080">
<defs>
<g>
<g id="glyph-0-0">
<path d="M 5.394531 0 L 3.15625 0 L 3.15625 -0.269531 C 3.355469 -0.28125 3.519531 -0.308594 3.648438 -0.34375 C 3.777344 -0.382812 3.84375 -0.429688 3.84375 -0.484375 C 3.84375 -0.507812 3.839844 -0.535156 3.835938 -0.570312 C 3.832031 -0.601562 3.824219 -0.632812 3.8125 -0.65625 L 3.367188 -1.863281 L 1.476562 -1.863281 C 1.40625 -1.6875 1.347656 -1.53125 1.300781 -1.402344 C 1.257812 -1.269531 1.21875 -1.148438 1.183594 -1.035156 C 1.148438 -0.929688 1.125 -0.839844 1.113281 -0.769531 C 1.101562 -0.703125 1.09375 -0.648438 1.09375 -0.605469 C 1.09375 -0.503906 1.175781 -0.425781 1.335938 -0.367188 C 1.492188 -0.3125 1.671875 -0.28125 1.875 -0.269531 L 1.875 0 L -0.15625 0 L -0.15625 -0.269531 C -0.0898438 -0.273438 -0.0078125 -0.289062 0.0898438 -0.3125 C 0.191406 -0.335938 0.269531 -0.371094 0.335938 -0.410156 C 0.433594 -0.476562 0.515625 -0.550781 0.570312 -0.625 C 0.625 -0.699219 0.679688 -0.800781 0.734375 -0.933594 C 1.003906 -1.609375 1.300781 -2.371094 1.628906 -3.210938 C 1.957031 -4.054688 2.246094 -4.804688 2.503906 -5.464844 L 2.804688 -5.464844 L 4.601562 -0.816406 C 4.640625 -0.71875 4.683594 -0.636719 4.730469 -0.578125 C 4.78125 -0.515625 4.847656 -0.457031 4.933594 -0.398438 C 4.992188 -0.363281 5.066406 -0.332031 5.160156 -0.308594 C 5.253906 -0.285156 5.332031 -0.273438 5.394531 -0.269531 L 5.394531 0 M 3.226562 -2.203125 L 2.410156 -4.292969 L 1.609375 -2.203125 Z "/>
</g>
<g id="glyph-0-1">
<path d="M 2.742188 0.128906 C 2.421875 0.128906 2.113281 0.0664062 1.820312 -0.0625 C 1.523438 -0.1875 1.265625 -0.371094 1.035156 -0.609375 C 0.8125 -0.847656 0.632812 -1.136719 0.496094 -1.480469 C 0.363281 -1.824219 0.296875 -2.210938 0.296875 -2.640625 C 0.296875 -3.070312 0.363281 -3.460938 0.492188 -3.8125 C 0.625 -4.164062 0.808594 -4.464844 1.039062 -4.71875 C 1.269531 -4.96875 1.542969 -5.164062 1.855469 -5.300781 C 2.167969 -5.4375 2.503906 -5.507812 2.859375 -5.507812 C 3.125 -5.507812 3.367188 -5.472656 3.582031 -5.40625 C 3.796875 -5.34375 4 -5.25 4.195312 -5.128906 L 4.351562 -5.390625 L 4.65625 -5.390625 L 4.691406 -3.46875 L 4.378906 -3.46875 C 4.339844 -3.65625 4.277344 -3.859375 4.195312 -4.078125 C 4.117188 -4.296875 4.019531 -4.480469 3.910156 -4.632812 C 3.789062 -4.804688 3.648438 -4.941406 3.480469 -5.039062 C 3.3125 -5.136719 3.121094 -5.183594 2.90625 -5.183594 C 2.660156 -5.183594 2.433594 -5.128906 2.222656 -5.019531 C 2.011719 -4.910156 1.828125 -4.75 1.675781 -4.539062 C 1.527344 -4.332031 1.414062 -4.070312 1.328125 -3.753906 C 1.246094 -3.4375 1.203125 -3.085938 1.203125 -2.695312 C 1.203125 -2.351562 1.246094 -2.035156 1.335938 -1.746094 C 1.421875 -1.457031 1.546875 -1.207031 1.707031 -0.988281 C 1.871094 -0.773438 2.0625 -0.605469 2.28125 -0.484375 C 2.503906 -0.359375 2.75 -0.300781 3.023438 -0.300781 C 3.230469 -0.300781 3.417969 -0.332031 3.589844 -0.398438 C 3.761719 -0.460938 3.910156 -0.546875 4.039062 -0.652344 C 4.164062 -0.765625 4.273438 -0.890625 4.371094 -1.03125 C 4.46875 -1.175781 4.546875 -1.328125 4.605469 -1.496094 L 4.890625 -1.359375 C 4.671875 -0.824219 4.386719 -0.445312 4.027344 -0.214844 C 3.667969 0.015625 3.238281 0.128906 2.742188 0.128906 Z "/>
</g>
<g id="glyph-0-2">
</g>
<g id="glyph-0-3">
<path d="M 2.726562 0 L 0.300781 0 L 0.300781 -0.269531 C 0.367188 -0.273438 0.46875 -0.28125 0.597656 -0.292969 C 0.726562 -0.300781 0.816406 -0.316406 0.871094 -0.339844 C 0.953125 -0.371094 1.015625 -0.414062 1.050781 -0.472656 C 1.089844 -0.53125 1.109375 -0.609375 1.109375 -0.710938 L 1.109375 -4.613281 C 1.109375 -4.703125 1.09375 -4.777344 1.066406 -4.835938 C 1.039062 -4.894531 0.972656 -4.945312 0.871094 -4.984375 C 0.792969 -5.015625 0.699219 -5.046875 0.582031 -5.070312 C 0.46875 -5.097656 0.375 -5.113281 0.300781 -5.117188 L 0.300781 -5.390625 L 2.726562 -5.390625 L 2.726562 -5.117188 C 2.648438 -5.117188 2.554688 -5.105469 2.445312 -5.089844 C 2.335938 -5.074219 2.242188 -5.054688 2.160156 -5.027344 C 2.066406 -4.996094 2 -4.949219 1.96875 -4.878906 C 1.933594 -4.8125 1.917969 -4.734375 1.917969 -4.652344 L 1.917969 -0.75 C 1.917969 -0.667969 1.9375 -0.59375 1.972656 -0.53125 C 2.007812 -0.464844 2.070312 -0.414062 2.160156 -0.375 C 2.214844 -0.355469 2.300781 -0.332031 2.421875 -0.308594 C 2.542969 -0.285156 2.644531 -0.273438 2.726562 -0.269531 Z "/>
</g>
<g id="glyph-0-4">
<path d="M 4.410156 0 L 2.578125 0 L 2.578125 -0.25 C 2.636719 -0.253906 2.699219 -0.261719 2.769531 -0.265625 C 2.839844 -0.269531 2.898438 -0.28125 2.941406 -0.296875 C 3.015625 -0.320312 3.066406 -0.359375 3.101562 -0.414062 C 3.136719 -0.472656 3.152344 -0.546875 3.152344 -0.636719 L 3.152344 -2.5625 C 3.152344 -2.828125 3.089844 -3.035156 2.964844 -3.179688 C 2.839844 -3.324219 2.683594 -3.394531 2.503906 -3.394531 C 2.371094 -3.394531 2.246094 -3.375 2.136719 -3.332031 C 2.023438 -3.289062 1.925781 -3.238281 1.839844 -3.179688 C 1.753906 -3.121094 1.6875 -3.058594 1.640625 -2.992188 C 1.589844 -2.921875 1.554688 -2.871094 1.53125 -2.828125 L 1.53125 -0.675781 C 1.53125 -0.589844 1.546875 -0.519531 1.582031 -0.464844 C 1.617188 -0.40625 1.671875 -0.363281 1.742188 -0.335938 C 1.796875 -0.308594 1.855469 -0.289062 1.914062 -0.277344 C 1.976562 -0.265625 2.042969 -0.253906 2.109375 -0.25 L 2.109375 0 L 0.273438 0 L 0.273438 -0.25 C 0.332031 -0.253906 0.390625 -0.261719 0.453125 -0.265625 C 0.515625 -0.269531 0.570312 -0.28125 0.613281 -0.296875 C 0.6875 -0.320312 0.738281 -0.359375 0.773438 -0.414062 C 0.808594 -0.472656 0.824219 -0.546875 0.824219 -0.636719 L 0.824219 -2.949219 C 0.824219 -3.035156 0.804688 -3.113281 0.769531 -3.183594 C 0.730469 -3.257812 0.679688 -3.316406 0.613281 -3.359375 C 0.566406 -3.390625 0.511719 -3.414062 0.445312 -3.425781 C 0.378906 -3.441406 0.308594 -3.449219 0.230469 -3.457031 L 0.230469 -3.707031 L 1.476562 -3.789062 L 1.53125 -3.738281 L 1.53125 -3.207031 L 1.550781 -3.207031 C 1.609375 -3.269531 1.6875 -3.34375 1.777344 -3.425781 C 1.867188 -3.511719 1.953125 -3.582031 2.035156 -3.632812 C 2.128906 -3.695312 2.242188 -3.746094 2.371094 -3.785156 C 2.5 -3.828125 2.644531 -3.847656 2.804688 -3.847656 C 3.164062 -3.847656 3.433594 -3.734375 3.605469 -3.511719 C 3.777344 -3.285156 3.867188 -2.988281 3.867188 -2.617188 L 3.867188 -0.667969 C 3.867188 -0.578125 3.882812 -0.507812 3.910156 -0.453125 C 3.941406 -0.398438 3.992188 -0.355469 4.066406 -0.328125 C 4.128906 -0.300781 4.179688 -0.285156 4.226562 -0.273438 C 4.269531 -0.261719 4.332031 -0.253906 4.410156 -0.25 Z "/>
</g>
<g id="glyph-0-5">
<path d="M 3.695312 -3.300781 C 3.84375 -3.121094 3.960938 -2.917969 4.042969 -2.683594 C 4.125 -2.449219 4.164062 -2.179688 4.164062 -1.878906 C 4.164062 -1.582031 4.117188 -1.3125 4.019531 -1.070312 C 3.917969 -0.824219 3.789062 -0.617188 3.625 -0.445312 C 3.457031 -0.269531 3.269531 -0.136719 3.0625 -0.0429688 C 2.851562 0.0507812 2.632812 0.0976562 2.398438 0.0976562 C 2.175781 0.0976562 1.988281 0.0742188 1.84375 0.0234375 C 1.703125 -0.0273438 1.582031 -0.0859375 1.492188 -0.15625 L 1.460938 -0.15625 L 1.460938 0.972656 C 1.460938 1.0625 1.480469 1.136719 1.515625 1.199219 C 1.550781 1.261719 1.605469 1.304688 1.679688 1.332031 C 1.738281 1.355469 1.824219 1.378906 1.9375 1.398438 C 2.050781 1.421875 2.144531 1.433594 2.21875 1.433594 L 2.21875 1.6875 L 0.125 1.6875 L 0.125 1.433594 C 0.203125 1.429688 0.28125 1.425781 0.351562 1.417969 C 0.425781 1.410156 0.492188 1.394531 0.550781 1.378906 C 0.625 1.351562 0.679688 1.308594 0.710938 1.246094 C 0.742188 1.183594 0.753906 1.109375 0.753906 1.023438 L 0.753906 -2.960938 C 0.753906 -3.039062 0.738281 -3.113281 0.699219 -3.183594 C 0.660156 -3.253906 0.613281 -3.308594 0.550781 -3.351562 C 0.503906 -3.382812 0.441406 -3.40625 0.359375 -3.421875 C 0.28125 -3.441406 0.203125 -3.449219 0.125 -3.457031 L 0.125 -3.707031 L 1.402344 -3.789062 L 1.453125 -3.746094 L 1.453125 -3.324219 L 1.484375 -3.316406 C 1.617188 -3.46875 1.78125 -3.59375 1.976562 -3.695312 C 2.167969 -3.796875 2.363281 -3.847656 2.554688 -3.847656 C 2.789062 -3.847656 3 -3.796875 3.195312 -3.699219 C 3.390625 -3.601562 3.554688 -3.46875 3.695312 -3.300781 M 3.074219 -0.609375 C 3.175781 -0.765625 3.25 -0.945312 3.300781 -1.15625 C 3.347656 -1.363281 3.371094 -1.59375 3.371094 -1.847656 C 3.371094 -2.035156 3.351562 -2.226562 3.3125 -2.421875 C 3.269531 -2.617188 3.207031 -2.789062 3.121094 -2.933594 C 3.035156 -3.078125 2.921875 -3.199219 2.785156 -3.289062 C 2.644531 -3.378906 2.476562 -3.425781 2.28125 -3.425781 C 2.09375 -3.425781 1.933594 -3.382812 1.804688 -3.300781 C 1.671875 -3.21875 1.558594 -3.121094 1.460938 -3.007812 L 1.460938 -0.792969 C 1.484375 -0.726562 1.523438 -0.65625 1.574219 -0.582031 C 1.625 -0.507812 1.683594 -0.445312 1.746094 -0.390625 C 1.824219 -0.328125 1.910156 -0.277344 2 -0.238281 C 2.09375 -0.199219 2.203125 -0.179688 2.335938 -0.179688 C 2.476562 -0.179688 2.613281 -0.214844 2.746094 -0.289062 C 2.878906 -0.363281 2.988281 -0.472656 3.074219 -0.609375 Z "/>
</g>
<g id="glyph-0-6">
<path d="M 4.289062 -0.0664062 L 3.066406 0.015625 L 3.007812 -0.0390625 L 3.007812 -0.511719 L 2.984375 -0.511719 C 2.925781 -0.449219 2.855469 -0.382812 2.78125 -0.308594 C 2.703125 -0.238281 2.617188 -0.171875 2.519531 -0.113281 C 2.40625 -0.046875 2.292969 0.0078125 2.1875 0.0429688 C 2.082031 0.078125 1.933594 0.09375 1.738281 0.09375 C 1.40625 0.09375 1.15625 -0.0117188 0.980469 -0.230469 C 0.808594 -0.445312 0.722656 -0.761719 0.722656 -1.171875 L 0.722656 -2.960938 C 0.722656 -3.054688 0.703125 -3.128906 0.671875 -3.191406 C 0.636719 -3.253906 0.585938 -3.308594 0.519531 -3.351562 C 0.472656 -3.382812 0.414062 -3.40625 0.347656 -3.417969 C 0.277344 -3.433594 0.207031 -3.441406 0.128906 -3.449219 L 0.128906 -3.699219 L 1.378906 -3.789062 L 1.433594 -3.738281 L 1.433594 -1.136719 C 1.433594 -0.863281 1.496094 -0.660156 1.617188 -0.523438 C 1.738281 -0.386719 1.886719 -0.320312 2.054688 -0.320312 C 2.195312 -0.320312 2.316406 -0.339844 2.425781 -0.382812 C 2.535156 -0.425781 2.625 -0.476562 2.699219 -0.535156 C 2.769531 -0.589844 2.828125 -0.644531 2.878906 -0.703125 C 2.933594 -0.761719 2.972656 -0.820312 3 -0.867188 L 3 -2.988281 C 3 -3.074219 2.980469 -3.148438 2.945312 -3.210938 C 2.910156 -3.277344 2.863281 -3.332031 2.796875 -3.375 C 2.753906 -3.40625 2.683594 -3.425781 2.59375 -3.429688 C 2.503906 -3.4375 2.40625 -3.441406 2.292969 -3.449219 L 2.292969 -3.699219 L 3.65625 -3.789062 L 3.714844 -3.738281 L 3.714844 -0.765625 C 3.714844 -0.679688 3.730469 -0.605469 3.765625 -0.546875 C 3.800781 -0.484375 3.851562 -0.433594 3.914062 -0.390625 C 3.960938 -0.363281 4.015625 -0.34375 4.078125 -0.335938 C 4.140625 -0.328125 4.210938 -0.320312 4.289062 -0.320312 Z "/>
</g>
<g id="glyph-0-7">
<path d="M 2.585938 -0.164062 C 2.421875 -0.09375 2.265625 -0.0390625 2.117188 0.0078125 C 1.972656 0.0546875 1.792969 0.078125 1.578125 0.078125 C 1.265625 0.078125 1.046875 0 0.917969 -0.15625 C 0.789062 -0.316406 0.726562 -0.539062 0.726562 -0.828125 L 0.726562 -3.363281 L 0.0507812 -3.363281 L 0.0507812 -3.730469 L 0.742188 -3.730469 L 0.742188 -4.894531 L 1.433594 -4.894531 L 1.433594 -3.730469 L 2.507812 -3.730469 L 2.507812 -3.363281 L 1.4375 -3.363281 L 1.4375 -1.273438 C 1.4375 -1.113281 1.445312 -0.984375 1.457031 -0.878906 C 1.46875 -0.773438 1.496094 -0.683594 1.539062 -0.605469 C 1.578125 -0.53125 1.640625 -0.476562 1.71875 -0.4375 C 1.800781 -0.398438 1.910156 -0.378906 2.046875 -0.378906 C 2.109375 -0.378906 2.203125 -0.386719 2.324219 -0.398438 C 2.449219 -0.410156 2.535156 -0.421875 2.585938 -0.441406 Z "/>
</g>
</g>
</defs>
<g fill="rgb(100%, 100%, 100%)" fill-opacity="1">
<use xlink:href="#glyph-0-0" x="30" y="27.131836"/>
<use xlink:href="#glyph-0-1" x="35" y="27.131836"/>
<use xlink:href="#glyph-0-2" x="40" y="27.131836"/>
<use xlink:href="#glyph-0-3" x="42" y="27.131836"/>
<use xlink:href="#glyph-0-4" x="45" y="27.131836"/>
<use xlink:href="#glyph-0-5" x="50" y="27.131836"/>
<use xlink:href="#glyph-0-6" x="54" y="27.131836"/>
<use xlink:href="#glyph-0-7" x="58" y="27.131836"/>
</g>
</svg>
